<svg xmlns="http://www.w3.org/2000/svg" width="1200" height="630" viewBox="0 0 1200 630">
  <defs>
    <pattern id="grid" width="44" height="44" patternUnits="userSpaceOnUse">
      <path d="M44 0H0V44" fill="none" stroke="#141414" stroke-opacity=".055"/>
    </pattern>
  </defs>

  <rect width="1200" height="630" fill="#F8F5EF"/>
  <rect width="1200" height="630" fill="url(#grid)"/>
  <rect x="28" y="28" width="1144" height="574" rx="18" fill="none" stroke="#141414" stroke-width="3"/>

  <rect x="76" y="70" width="64" height="64" rx="10" fill="#E6482C" stroke="#141414" stroke-width="3"/>
  <path d="M145 78v63H84" fill="none" stroke="#141414" stroke-width="5"/>
  <text x="108" y="116" text-anchor="middle" font-family="Arial, Helvetica, sans-serif" font-size="38" font-weight="700" fill="#141414">A</text>
  <text x="160" y="115" font-family="Arial, Helvetica, sans-serif" font-size="34" font-weight="700" letter-spacing="-1.5" fill="#141414">atende.</text>

  <rect x="76" y="177" width="312" height="34" rx="17" fill="#FFE1D8" stroke="#E6482C" stroke-width="1.5"/>
  <circle cx="95" cy="194" r="5" fill="#E6482C"/>
  <text x="109" y="199" font-family="monospace" font-size="13" font-weight="700" letter-spacing="1" fill="#141414">ATENCIÓN POR WHATSAPP · CON IA</text>

  <text x="72" y="305" font-family="Arial, Helvetica, sans-serif" font-size="82" font-weight="700" letter-spacing="-4" fill="#141414">Tu negocio</text>
  <text x="72" y="390" font-family="Arial, Helvetica, sans-serif" font-size="82" font-weight="700" letter-spacing="-4" fill="#E6482C">atendido.</text>
  <text x="72" y="457" font-family="Arial, Helvetica, sans-serif" font-size="48" font-weight="700" letter-spacing="-2" fill="#141414">Incluso cuando vos no estás.</text>
  <text x="76" y="536" font-family="Arial, Helvetica, sans-serif" font-size="22" fill="#68615A">Respuestas automáticas y una bandeja simple para tu equipo.</text>

  <rect x="762" y="122" width="342" height="390" rx="12" fill="#141414"/>
  <rect x="750" y="110" width="342" height="390" rx="12" fill="#FFFDF8" stroke="#141414" stroke-width="3"/>
  <rect x="750" y="110" width="342" height="58" rx="12" fill="#0F3D2E"/>
  <path d="M750 156h342" stroke="#141414" stroke-width="3"/>
  <circle cx="780" cy="138" r="7" fill="#E6482C"/>
  <text x="798" y="144" font-family="Arial, Helvetica, sans-serif" font-size="16" font-weight="700" fill="#F8F5EF">Conversación con María</text>
  <rect x="778" y="201" width="192" height="58" rx="10" fill="#F8F5EF" stroke="#141414" stroke-width="2"/>
  <text x="794" y="227" font-family="Arial, Helvetica, sans-serif" font-size="14" fill="#141414">¿Tienen turno mañana</text>
  <text x="794" y="246" font-family="Arial, Helvetica, sans-serif" font-size="14" fill="#141414">a la tarde?</text>
  <rect x="846" y="286" width="218" height="82" rx="10" fill="#0F3D2E" stroke="#141414" stroke-width="2"/>
  <text x="862" y="313" font-family="Arial, Helvetica, sans-serif" font-size="14" fill="#F8F5EF">Mañana tenemos 16:30</text>
  <text x="862" y="334" font-family="Arial, Helvetica, sans-serif" font-size="14" fill="#F8F5EF">o 18:00. ¿Cuál te queda</text>
  <text x="862" y="355" font-family="Arial, Helvetica, sans-serif" font-size="14" fill="#F8F5EF">mejor?</text>
  <rect x="815" y="395" width="213" height="32" rx="16" fill="#CDEEE5"/>
  <circle cx="834" cy="411" r="5" fill="#147C72"/>
  <text x="846" y="416" font-family="monospace" font-size="11" font-weight="700" fill="#147C72">RESPONDIDO POR ATENDE</text>
  <rect x="778" y="451" width="286" height="24" rx="7" fill="#F2EDE3"/>

  <rect x="75" y="570" width="1050" height="2" fill="#141414" opacity=".18"/>
  <text x="1084" y="592" text-anchor="end" font-family="monospace" font-size="14" font-weight="700" letter-spacing="1" fill="#141414">ATENDE.COM.AR</text>
</svg>
